<svg  version="1.1" xmlns="http://www.w3.org/2000/svg" xmlns:xlink="http://www.w3.org/1999/xlink" xml:space="preserve">
<defs>
<g viewBox="0 0 50.2 100" id="mic">
	<path d="M44.2,33.9v18.9c0,10.4-8.5,18.9-18.9,18.9h-0.3C14.5,71.7,6,63.3,6,52.8V33.9
		c0-1.3-1.1-2.4-2.4-2.4H2.4c-1.3,0-2.4,1.1-2.4,2.4v21.4c0,10.5,7.2,19.3,17,21.8c1.1,0.3,1.8,1.2,1.8,2.4v8c0,1.3-1.1,2.4-2.4,2.4
		h-4.8c-1.3,0-2.4,1.1-2.4,2.4v5.2c0,1.3,1.1,2.4,2.4,2.4h27c1.3,0,2.4-1.1,2.4-2.4v-5.2c0-1.3-1.1-2.4-2.4-2.4h-4.8
		c-1.3,0-2.4-1.1-2.4-2.4v-8c0-1.1,0.8-2.1,1.8-2.4c9.8-2.5,17-11.3,17-21.8V33.9c0-1.3-1.1-2.4-2.4-2.4h-1.1
		C45.3,31.4,44.2,32.5,44.2,33.9z"/>
	<path d="M25.1,68.6L25.1,68.6c8.8,0,15.9-7.2,15.9-15.9V15.9C41,7.2,33.8,0,25.1,0h0
		C16.3,0,9.2,7.2,9.2,15.9v36.7C9.2,61.4,16.3,68.6,25.1,68.6z"/>
</g>
</defs>
</svg>
