<?xml version="1.0" encoding="utf-8"?>
<!-- Generator: Adobe Illustrator 19.0.0, SVG Export Plug-In . SVG Version: 6.00 Build 0)  -->
<svg version="1.1" id="Layer_1" xmlns="http://www.w3.org/2000/svg" xmlns:xlink="http://www.w3.org/1999/xlink" x="0px" y="0px"
	 viewBox="0 0 44.1 34.6" style="enable-background:new 0 0 44.1 34.6;" xml:space="preserve">
<style type="text/css">
	.st0{fill:#EAE5F1;}
</style>
<g id="XMLID_87_">
	<path id="XMLID_94_" class="st0" d="M17.3,0c4.2,0,8.2,0.9,11.7,3.3c3,2,5.1,4.6,5.5,8.2c0.4,2.9-0.6,5.5-2.5,7.7
		c-3.1,3.6-7.2,5.2-11.8,5.8c-2.2,0.3-4.5,0.3-6.7-0.1c-0.5-0.1-0.9,0.1-1.2,0.3c-2.3,1.5-4.9,2.5-7.6,3c-0.6,0.1-1.2,0.2-1.5-0.4
		c-0.4-0.7,0.1-1.1,0.5-1.5c0.9-0.9,1.7-1.9,2.3-3c0.4-0.6,0.3-1-0.4-1.4c-1.9-1.2-3.5-2.8-4.5-4.8c-2.1-3.8-1.3-8.5,1.9-11.7
		C6.1,2.3,10,0.8,14.3,0.2C15.3,0,16.3,0,17.3,0z"/>
	<path id="XMLID_93_" class="st0" d="M15.4,28.2c0.2-0.2,0.5-0.2,0.7-0.1c4.3,0.3,8.3-0.5,12.1-2.4c4.1-2,7.3-5,8.8-9.5
		c0.7-2.2,0.7-4.4,0.2-6.6c-0.1-0.2-0.3-0.5,0-0.7c0.2-0.1,0.4,0.1,0.6,0.2c2.7,1.7,4.9,3.9,5.8,7.1c1,3.7-0.1,6.8-2.6,9.6
		c-0.8,0.9-1.8,1.7-2.8,2.3c-0.5,0.3-0.6,0.6-0.3,1.2c0.5,1,1.2,1.9,2,2.7c0.2,0.2,0.4,0.5,0.6,0.7c0.3,0.4,0.5,0.7,0.3,1.2
		c-0.3,0.5-0.7,0.6-1.2,0.5c-1.5-0.2-2.9-0.6-4.3-1.2c-1.3-0.5-2.5-1.1-3.6-1.9c-0.5-0.3-1-0.4-1.5-0.3c-5.1,0.7-9.9,0.1-14.3-2.6
		c-0.1-0.1-0.2-0.1-0.3-0.2C15.5,28.4,15.4,28.3,15.4,28.2z"/>
</g>
</svg>
