<?xml version="1.0" encoding="utf-8"?>
<!-- Generator: Adobe Illustrator 19.0.0, SVG Export Plug-In . SVG Version: 6.00 Build 0)  -->
<svg version="1.1" id="Layer_1" xmlns="http://www.w3.org/2000/svg" xmlns:xlink="http://www.w3.org/1999/xlink" x="0px" y="0px"
	 viewBox="0 0 27.6 34.4" style="enable-background:new 0 0 27.6 34.4;" xml:space="preserve">
<style type="text/css">
	.st0{fill:#AE73B0;}
</style>
<g id="g7191" transform="translate(-171.65328,-165.1456)">
	<g id="g7092">
		<path id="path23109" inkscape:connector-curvature="0" sodipodi:nodetypes="csscsccsssssssssssssssssssss" class="st0" d="
			M173.4,172.5v23.4c0,2,1.5,3.6,3.5,3.6h17.3c2,0,3.3-1.5,3.5-3.6v-23.4H173.4z M178.9,176.1c0.8,0,1.4,0.6,1.4,1.4v17
			c0,0.8-0.6,1.4-1.4,1.4c-0.8,0-1.4-0.6-1.4-1.4v-17C177.5,176.7,178.1,176.1,178.9,176.1z M185.5,176.1c0.9,0,1.6,0.7,1.6,1.6
			v16.6c0,0.9-0.7,1.6-1.6,1.6c-0.9,0-1.6-0.7-1.6-1.6v-16.6C183.9,176.8,184.6,176.1,185.5,176.1z M192,176.1
			c0.8,0,1.4,0.6,1.4,1.4v17c0,0.8-0.6,1.4-1.4,1.4c-0.8,0-1.4-0.6-1.4-1.4v-17C190.6,176.7,191.3,176.1,192,176.1z"/>
		<path id="rect9049" inkscape:connector-curvature="0" sodipodi:nodetypes="sscsssssssscsss" class="st0" d="M181.8,165.1
			c-0.8,0-1.5,0.7-1.5,1.5v0.5h-7.8c-0.4,0-0.8,0.4-0.8,0.8v1.9c0,0.5,0.4,0.8,0.8,0.8h26c0.4,0,0.8-0.4,0.8-0.8v-1.9
			c0-0.5-0.4-0.8-0.8-0.8h-7.8v-0.5c0-0.8-0.7-1.5-1.5-1.5H181.8z"/>
	</g>
</g>
</svg>
