<?xml version="1.0" encoding="utf-8"?>
<!-- Generator: Adobe Illustrator 19.0.0, SVG Export Plug-In . SVG Version: 6.00 Build 0)  -->
<svg version="1.1" id="Layer_1" xmlns="http://www.w3.org/2000/svg" xmlns:xlink="http://www.w3.org/1999/xlink" x="0px" y="0px"
	 viewBox="0 0 39.1 39.1" style="enable-background:new 0 0 39.1 39.1;" xml:space="preserve">
<style type="text/css">
	.st0{fill:#2F1B33;}
</style>
<g id="XMLID_333_">
	<path id="XMLID_400_" class="st0" d="M16.3,32.5c-0.3,0.4-0.9,0.4-1.2,0L5.8,21.2c-0.3-0.4-0.3-1,0.1-1.3l1-0.9
		c0.4-0.3,0.9-0.3,1.3,0l6.6,6c0.4,0.3,1,0.4,1.4,0l15.8-12.8c0.4-0.3,1-0.3,1.3,0.1l0,0c0.4,0.3,0.4,0.9,0.1,1.3L16.3,32.5z"/>
	<g id="XMLID_334_">
		<path id="XMLID_335_" class="st0" d="M19.6,39.1C8.8,39.1,0,30.3,0,19.6C0,8.8,8.8,0,19.6,0c10.8,0,19.6,8.8,19.6,19.6
			C39.1,30.3,30.3,39.1,19.6,39.1z M19.6,2.5c-9.4,0-17.1,7.7-17.1,17.1s7.7,17.1,17.1,17.1S36.7,29,36.7,19.6S29,2.5,19.6,2.5z"/>
	</g>
</g>
</svg>
