<?xml version="1.0" encoding="utf-8"?>
<!-- Generator: Adobe Illustrator 19.0.0, SVG Export Plug-In . SVG Version: 6.00 Build 0)  -->
<svg version="1.1" id="Layer_1" xmlns="http://www.w3.org/2000/svg" xmlns:xlink="http://www.w3.org/1999/xlink" x="0px" y="0px"
	 viewBox="0 0 69.6 45.5" style="enable-background:new 0 0 69.6 45.5;" xml:space="preserve">
<style type="text/css">
	.st0{fill:#EAE5F1;}
</style>
<g id="XMLID_209_">
	<circle id="XMLID_222_" class="st0" cx="34.8" cy="22.9" r="5.1"/>
	<path id="XMLID_221_" class="st0" d="M12.6,3.5l-0.4-0.3L8.6,0C6.2,2.8,4.2,5.9,2.7,9.4C0.9,13.7,0,18.2,0,22.9
		c0,4.7,0.9,9.3,2.7,13.5c1.4,3.3,3.3,6.4,5.6,9.1l3.9-3.4l0.1-0.1C8,36.9,5.3,30.2,5.3,22.9C5.3,15.5,8.1,8.7,12.6,3.5z"/>
	<path id="XMLID_219_" class="st0" d="M20.3,10.1l-4-3.5c-4,4.5-6.1,10.2-6.1,16.3c0,5.9,2.1,11.6,5.9,16l4-3.5
		c-2.9-3.4-4.6-7.8-4.6-12.5C15.4,18,17.2,13.5,20.3,10.1z"/>
	<path id="XMLID_218_" class="st0" d="M27.7,16.5l-4-3.5c-2.3,2.6-3.8,6.1-3.8,9.9c0,3.6,1.3,7,3.5,9.6l4-3.5
		c-1.4-1.7-2.2-3.8-2.2-6.1C25.2,20.5,26.2,18.2,27.7,16.5z"/>
	<path id="XMLID_217_" class="st0" d="M41.9,16.5c1.5,1.7,2.5,3.9,2.5,6.4c0,2.3-0.8,4.4-2.2,6.1l4,3.5c2.2-2.6,3.5-5.9,3.5-9.6
		c0-3.8-1.4-7.2-3.8-9.9L41.9,16.5z"/>
	<path id="XMLID_211_" class="st0" d="M49.3,10.1c3,3.4,4.9,7.9,4.9,12.8c0,4.8-1.7,9.2-4.6,12.5l4,3.5c3.8-4.5,5.9-10.1,5.9-16
		c0-6.1-2.2-11.8-6.1-16.3L49.3,10.1z"/>
	<path id="XMLID_210_" class="st0" d="M61,0l-3.7,3.2l-0.4,0.3c4.6,5.2,7.3,12,7.3,19.4c0,7.3-2.7,14-7.1,19.1l0.1,0.1l3.9,3.4
		c2.3-2.7,4.2-5.8,5.6-9.1c1.8-4.3,2.7-8.8,2.7-13.5c0-4.7-0.9-9.3-2.7-13.5C65.4,5.9,63.4,2.8,61,0z"/>
</g>
</svg>
