<?xml version="1.0" encoding="utf-8"?>
<!-- Generator: Adobe Illustrator 19.0.0, SVG Export Plug-In . SVG Version: 6.00 Build 0)  -->
<svg version="1.1" id="Layer_1" xmlns="http://www.w3.org/2000/svg" xmlns:xlink="http://www.w3.org/1999/xlink" x="0px" y="0px"
	 viewBox="0 0 40.2 25.2" style="enable-background:new 0 0 40.2 25.2;" xml:space="preserve">
<style type="text/css">
	.st0{fill:#EAE5F1;}
</style>
<g id="XMLID_79_">
	<path id="path8094_4_" inkscape:connector-curvature="0" class="st0" d="M0,1.4l0,22.4l13.2-10.7L0,1.4z M40.2,1.3L27,13.1
		l13.2,10.6L40.2,1.3L40.2,1.3z M14.8,14.5L1.6,25.2l18.5,0l18.5,0L25.4,14.5l-1.2,1.1c-0.5,0.4-1,0.9-1.7,1.3
		c-0.7,0.4-1.5,0.7-2.4,0.7c-0.9,0-1.7-0.3-2.4-0.6c-0.7-0.4-1.2-0.8-1.7-1.3L14.8,14.5L14.8,14.5z"/>
	<path id="path8096_4_" inkscape:connector-curvature="0" class="st0" d="M1.7,0L17.4,14c0.5,0.4,0.9,0.8,1.4,1
		c0.4,0.2,0.9,0.4,1.3,0.4c0.4,0,0.9-0.1,1.3-0.4c0.4-0.2,0.9-0.6,1.4-1L38.5,0L20.1,0L1.7,0z"/>
</g>
</svg>
