<?xml version="1.0" encoding="utf-8"?>
<!-- Generator: Adobe Illustrator 19.0.0, SVG Export Plug-In . SVG Version: 6.00 Build 0)  -->
<svg version="1.1" id="Layer_1" xmlns="http://www.w3.org/2000/svg" xmlns:xlink="http://www.w3.org/1999/xlink" x="0px" y="0px"
	 viewBox="0 0 401.8 370.6" style="enable-background:new 0 0 401.8 370.6;" xml:space="preserve">
<style type="text/css">
	.st0{fill:#483F5A;}
</style>
<path id="XMLID_146_" class="st0" d="M361.7,171.3c-22.1,0-40.1,18-40.1,40.1s18,40.1,40.1,40.1c22.1,0,40.1-18,40.1-40.1
	S383.8,171.3,361.7,171.3z"/>
<path id="XMLID_145_" class="st0" d="M313.8,259.2c-30.7,0-55.7,25-55.7,55.7s25,55.7,55.7,55.7s55.7-25,55.7-55.7
	S344.5,259.2,313.8,259.2z"/>
<path id="XMLID_144_" class="st0" d="M313.8,256.2c12,0,23.1,3.6,32.4,9.8c2.1-4.1,4.1-8.4,5.9-12.7c-19.1-4.4-33.3-21.5-33.3-41.9
	c0-23.7,19.3-43.1,43.1-43.1c1.3,0,2.5,0.1,3.7,0.2C358,74.2,279.2,0,183,0C81.9,0,0,81.9,0,183s81.9,183,183,183
	c29.3,0,57-6.9,81.6-19.2c-6-9.2-9.5-20.2-9.5-32C255.1,282.5,281.4,256.2,313.8,256.2z"/>
</svg>
