<?xml version="1.0" encoding="utf-8"?>
<!-- Generator: Adobe Illustrator 19.0.0, SVG Export Plug-In . SVG Version: 6.00 Build 0)  -->
<svg version="1.1" id="Layer_1" xmlns="http://www.w3.org/2000/svg" xmlns:xlink="http://www.w3.org/1999/xlink" x="0px" y="0px"
	 viewBox="0 0 402.5 80.8" style="enable-background:new 0 0 402.5 80.8;" xml:space="preserve">
<style type="text/css">
	.st0{fill:#524E5A;}
</style>
<g id="XMLID_144_">
	<path id="XMLID_162_" class="st0" d="M321.4,78.3V3.1c-26.1-1.3-52.4-2.3-78.1-2.7v80.1C269,80.1,295.3,79.4,321.4,78.3z"/>
	<path id="XMLID_161_" class="st0" d="M394.6,8c-23-1.9-46.6-3.5-70.2-4.7v74.9c23.6-1,47.1-2.3,70-3.8c4.5-0.3,8.1-3.9,8.1-8.3
		V16.3C402.5,12,399.1,8.3,394.6,8z"/>
	<path id="XMLID_160_" class="st0" d="M0,16.3v49.8c0,4.4,3.5,8,8.1,8.3c23.2,1.5,46.8,2.8,70,3.8v-75C54.7,4.5,31.1,6.1,7.9,8
		C3.5,8.3,0,12,0,16.3z"/>
	<path id="XMLID_146_" class="st0" d="M159.2,80.5V0.4c-26.1,0.5-52.3,1.4-78.1,2.7v75.2C106.9,79.4,133.2,80.1,159.2,80.5z"/>
	<path id="XMLID_145_" class="st0" d="M162.2,0.3v80.2c25.7,0.3,52,0.3,78.1,0V0.3C214.2-0.1,187.9-0.1,162.2,0.3z"/>
</g>
</svg>
