<?xml version="1.0" encoding="utf-8"?>
<!-- Generator: Adobe Illustrator 19.0.0, SVG Export Plug-In . SVG Version: 6.00 Build 0)  -->
<svg version="1.1" id="Layer_1" xmlns="http://www.w3.org/2000/svg" xmlns:xlink="http://www.w3.org/1999/xlink" x="0px" y="0px"
	 viewBox="0 0 36.2 39.4" style="enable-background:new 0 0 36.2 39.4;" xml:space="preserve">
<style type="text/css">
	.st0{fill:#EAE5F1;}
</style>
<g id="XMLID_223_">
	<path id="XMLID_225_" class="st0" d="M31.2,20.4L20.4,9.6c-0.5-0.5-1.2-0.8-2-0.9c0,0-0.1,0-0.1,0c-0.1,0-0.2,0-0.2,0
		c0,0-0.1,0-0.1,0c-0.8,0.1-1.5,0.4-2,0.9L5,20.4c-1.2,1.2-1.2,3.2,0,4.4c0.6,0.6,1.4,0.9,2.2,0.9c0.8,0,1.6-0.3,2.2-0.9l5.6-5.7
		v17.2c0,1.7,1.4,3,3,3c1.7,0,3-1.4,3-3V19.1l5.6,5.7c0.6,0.6,1.4,0.9,2.2,0.9c0.8,0,1.6-0.3,2.2-0.9C32.4,23.6,32.4,21.6,31.2,20.4
		z"/>
	<path id="XMLID_224_" class="st0" d="M3,6.1h30.2c1.7,0,3-1.4,3-3c0-1.7-1.3-3-3-3L3,0C1.4,0,0,1.4,0,3C0,4.7,1.4,6.1,3,6.1z"/>
</g>
</svg>
